<svg width="246" height="82" viewBox="0 0 246 82" fill="none" xmlns="http://www.w3.org/2000/svg">
<path d="M6.48581 81.3953L11.6698 45.4704L239.655 13.3385L234.47 49.2635L6.48581 81.3953Z" stroke="url(#paint0_linear_73_1140)"/>
<path d="M17.6978 31.1024L234.955 0.482513L230.153 37.3635L12.8958 67.9834L17.6978 31.1024Z" fill="url(#paint1_linear_73_1140)"/>
<path d="M42.8071 54.7794L42.3335 54.8238L41.6904 54.9184L41.5137 54.9191L40.2028 55.1119L39.9729 55.0952L39.8659 54.8835L39.9074 54.65L39.9241 54.4201L39.919 54.0418L39.9103 53.6388L39.9546 53.2532L39.9212 52.8539L39.9663 52.6451L39.9335 52.4225L39.9575 52.2421L39.932 52.0689L39.9524 51.8638L39.9517 51.687L39.9255 51.3371L39.9276 51.0083L39.9975 50.7958L39.9887 50.3928L39.9633 50.2197L39.9836 50.0145L39.9858 49.6857L39.9676 49.5621L40.0229 49.2507L39.9763 49.1059L40.0032 48.7735L40.052 48.5894L40.0512 48.4127L40.0709 48.0307L40.0949 47.8503L40.1174 47.3164L40.0628 46.9453L40.1108 46.5845L40.1057 46.2062L40.1545 46.0222L40.1501 45.8207L40.1494 45.6439L40.1239 45.4708L40.201 45.3078L40.2403 44.544L40.2854 44.3352L40.3094 44.1548L40.2628 44.01L40.2861 43.6528L40.3304 43.2673L40.2533 42.5711L40.302 42.387L40.2504 41.864L40.3275 41.701L40.3478 41.4959L40.3471 41.3191L40.3005 41.1743L40.2998 40.9975L40.3514 40.6615L40.35 40.3079L40.4023 40.1486L40.3769 39.9754L40.4256 39.7914L40.3791 39.6466L40.4031 39.4662L40.3805 39.141L40.4081 38.9854L40.411 38.8333L40.3885 38.5081L40.3914 38.3561L40.3164 38.1902L40.347 37.8825L40.3994 37.7232L40.4023 37.5712L40.5783 37.3936L40.9988 37.3318L41.1435 37.2852L41.3203 37.2845L41.6135 37.2161L41.7866 37.1906L41.9881 37.1863L42.2355 37.1499L42.776 37.0451L44.6274 36.7475L45.1999 36.6886L45.4014 36.6842L46.1151 36.554L46.6592 36.4739L46.8782 36.4165L47.1291 36.4048L47.3554 36.3968L47.5045 36.5518L47.4703 36.8347L47.4922 36.9831L47.5337 37.6088L47.5555 37.7572L47.5067 37.9412L47.5075 38.118L47.5046 38.27L47.4849 38.652L47.5141 38.8498L47.4661 39.2107L47.4631 39.3627L47.4362 39.6952L47.1925 39.7563L46.1537 39.9091L45.8605 39.9775L44.2528 40.2139L43.6629 40.326L43.6323 40.6337L43.6331 40.8105L43.684 41.1568L43.6316 41.3161L43.6607 41.5139L43.6557 41.9948L43.6571 42.3484L43.6338 42.7055L43.6098 42.886L43.6637 43.0802L43.6259 43.3384L43.6419 43.7909L44.0871 43.7254L44.9564 43.6228L45.4191 43.5042L46.0622 43.4097L46.2673 43.43L46.4448 43.6061L46.439 43.9101L46.4681 44.108L46.4587 44.3874L46.4354 44.7446L46.4114 44.925L46.3918 45.3069L46.4172 45.48L46.3721 45.6888L46.3736 46.0424L46.3576 46.449L46.3591 46.8026L46.3169 46.8593L46.0695 46.8957L45.7022 46.975L45.4796 47.0077L44.8649 47.1234L44.4408 47.1605L44.1687 47.2006L43.8508 47.2726L43.6282 47.3053L43.5693 47.592L43.5424 47.9244L43.5453 48.6315L43.5075 48.8898L43.4907 49.1196L43.5024 49.3706L43.4784 49.551L43.4697 50.0072L43.4653 50.6648L43.4944 50.8627L43.6079 50.947L43.9615 50.9456L45.4208 50.7309L45.7707 50.7047L46.3185 50.6494L47.0074 50.5228L47.1914 50.5716L47.1958 50.7731L47.1856 50.8756L47.1762 51.155L47.1805 51.3565L47.1616 51.9152L47.2089 52.2367L47.1849 52.4172L47.1573 52.5728L47.158 52.7496L47.1384 53.1315L47.1755 53.5556L47.1588 53.7855L47.1246 54.0685L44.7749 54.4141L44.3828 54.4971L44.0576 54.5196L43.9128 54.5662L43.3934 54.6426L43.0013 54.7255L42.8071 54.7794ZM64.5565 53.8797L63.8356 53.9605L63.5846 53.9721L63.4362 53.994L63.2595 53.9947L63.0994 53.7656L63.0703 53.5677L63.135 52.1178L63.1583 51.7606L62.0169 51.9033L61.5011 52.0044L59.2605 52.2329L58.8931 52.3122L58.7236 52.3624L58.5221 52.3668L58.2821 52.4526L57.8827 52.4861L57.7379 52.5327L57.5648 52.5581L57.3211 52.6192L57.1479 52.6447L56.9464 52.6491L55.6566 52.8135L54.9503 52.9932L53.4022 53.1199L53.0348 53.1992L52.8653 53.2494L52.116 53.309L51.8723 53.3702L51.6461 53.3782L51.2998 53.4291L51.1303 53.4793L49.8194 53.6721L49.6499 53.7223L49.367 53.6881L49.2316 53.4554L49.2345 53.3033L49.1945 53.0312L49.2331 52.9498L49.2178 52.6741L49.1712 52.5293L49.2309 52.4194L49.2229 52.1932L49.2541 52.0623L49.2527 51.7087L49.3189 51.4715L49.2927 51.1216L49.2672 50.9485L49.2701 50.7965L49.2992 50.1352L49.3086 49.8558L49.3363 49.7002L49.3421 49.3961L49.3414 49.2193L49.3472 48.9152L49.3217 48.7421L49.3239 48.4133L49.3544 48.1055L49.3813 47.7731L49.3879 47.6458L49.4111 47.2886L49.4526 47.0551L49.4198 46.8325L49.4191 46.6557L49.4147 46.4542L49.3893 46.281L49.3914 45.9522L49.4293 45.694L49.438 45.2379L49.4685 44.9301L49.4678 44.7534L49.5405 44.3889L49.5114 44.191L49.5405 43.5297L49.5463 43.2257L49.5943 42.8648L49.5652 42.667L49.6132 42.3061L49.5841 42.1083L49.5826 41.7547L49.5892 41.6274L49.5382 41.2811L49.6255 41.0156L49.5608 40.7472L49.5804 40.3653L49.576 40.1637L49.6277 39.8277L49.5986 39.6298L49.6218 39.2726L49.6204 38.919L49.6225 38.5902L49.5971 38.4171L49.6313 38.1341L49.6342 37.9821L49.6647 37.6743L49.6429 37.5259L49.6698 37.1935L49.6683 36.8399L49.6952 36.5075L49.6909 36.306L49.7323 36.0724L49.9935 35.9582L50.6366 35.8636L50.8133 35.8629L51.5306 35.7574L51.8842 35.7559L52.082 35.7268L52.2515 35.6766L52.5272 35.6613L52.704 35.6606L52.8983 35.6068L53.1034 35.6271L53.3442 35.7181L53.3769 35.9407L53.4039 36.4673L53.3631 36.8776L53.3399 37.2348L53.3406 37.4116L53.345 37.6131L53.3254 37.995L53.3261 38.1718L53.3057 38.377L53.3065 38.5537L53.2548 38.8898L53.3014 39.0346L53.2927 39.4907L53.2585 39.7737L53.2418 40.0036L53.2003 40.2371L53.1836 40.467L53.2025 40.7674L53.204 41.121L53.1763 41.2767L53.1523 41.4571L53.2025 41.6266L53.1094 42.1962L53.1145 42.5745L53.1364 42.7229L53.1131 43.0801L53.1102 43.2321L53.1117 43.5857L53.1626 43.9319L53.1146 44.2928L53.14 44.4659L53.1415 44.8194L53.0717 45.0319L53.119 45.3534L53.1132 45.6575L53.0863 45.9899L53.0135 46.3544L53.0157 46.8847L53.0667 47.231L53.0179 47.4151L53.0194 47.7686L53.0165 47.9206L53.0667 48.0901L53.0114 48.4015L53.0085 48.5535L52.9816 48.886L52.9823 49.0628L52.9307 49.3989L52.9809 49.5684L52.9853 49.7699L52.9998 49.8688L53.6145 49.7531L53.9928 49.748L54.6075 49.6323L55.3037 49.5552L55.3692 49.1413L55.3684 48.9645L55.3175 48.6182L55.3699 48.4589L55.3408 48.261L55.3706 47.7765L55.3691 47.423L55.3916 46.889L55.3873 46.6875L55.3683 46.3871L55.4127 46.0015L55.388 45.146L55.3959 44.5131L55.4148 43.9544L55.3981 43.3251L55.401 43.1731L55.4264 42.4871L55.4606 42.2041L55.5122 41.868L55.4824 41.4934L55.4809 41.1398L55.5435 40.8779L55.5355 40.6517L55.4991 40.4044L55.5478 40.2203L55.5566 39.7642L55.5609 39.1065L55.5318 38.9087L55.5376 38.6046L55.5885 38.0917L55.5543 37.5156L55.5863 36.7023L55.6321 35.8111L55.6103 35.6627L55.6241 35.5849L55.595 35.387L55.6328 35.1287L55.7739 35.0574L56.0249 35.0458L56.2191 34.992L56.6782 34.8486L56.8513 34.8232L57.1306 34.8326L57.3285 34.8035L57.5053 34.8028L57.7526 34.7664L58.6641 34.607L58.862 34.5779L59.0919 34.5947L59.2061 34.8558L59.1188 35.1214L59.1021 35.3512L59.1072 35.7295L59.116 36.1325L59.0716 36.5181L59.1051 36.9175L59.06 37.1263L59.068 37.3525L59.0694 37.7061L59.0738 37.9076L59.0498 38.088L59.076 38.4379L59.0738 38.7667L59.0287 38.9755L59.0084 39.1806L59.063 39.5516L59.0426 39.7568L59.0404 40.0856L59.0339 40.2129L59.0033 40.5206L59.0499 40.6654L59.023 40.9979L58.9743 41.1819L58.975 41.3587L58.9554 41.7406L58.9088 42.455L58.9634 42.826L58.9154 43.1868L58.9205 43.5651L58.8718 43.7492L58.8761 43.9507L58.9023 44.3006L58.8252 44.4635L58.786 45.2274L58.7409 45.4362L58.7169 45.6166L58.7634 45.7613L58.7402 46.1185L58.6958 46.5041L58.7729 47.2003L58.7242 47.3843L58.7759 47.9074L58.6988 48.0703L58.6784 48.2755L58.6791 48.4523L58.7264 48.7738L58.7024 48.9542L59.5928 48.8232L59.8191 48.8152L60.4585 48.6959L60.9816 48.6442L60.9874 48.3401L60.9968 48.0608L60.9997 47.9088L61.0303 47.601L61.0296 47.4243L61.0106 47.1238L61.0099 46.947L61.0121 46.6182L61.0426 46.3105L61.0695 45.9781L61.0761 45.8507L61.0993 45.4936L61.1408 45.26L61.108 45.0374L61.1073 44.8607L61.1029 44.6591L61.0775 44.486L61.0796 44.1572L61.0927 43.9026L61.1233 43.5949L61.132 43.1387L61.156 42.9583L61.2287 42.5939L61.1996 42.396L61.204 41.7384L61.2345 41.4306L61.2825 41.0698L61.2534 40.8719L61.3014 40.5111L61.2723 40.3132L61.2708 39.9597L61.2774 39.8324L61.2264 39.4861L61.3137 39.2206L61.249 38.9521L61.2686 38.5702L61.2642 38.3687L61.3159 38.0326L61.2868 37.8347L61.31 37.4776L61.3086 37.124L61.3108 36.7952L61.2606 36.6257L61.3195 36.3391L61.3311 35.7309L61.358 35.3984L61.3565 35.0449L61.3834 34.7124L61.3791 34.5109L61.4205 34.2774L61.6817 34.1632L62.3248 34.0686L62.5015 34.0679L63.2188 33.9624L63.5724 33.9609L63.7702 33.9318L63.9397 33.8816L64.2154 33.8663L64.7101 33.7935L64.94 33.8103L64.9793 33.9056L65.0077 33.9267L65.0651 34.1456L65.0673 34.676L65.0513 35.0826L65.0281 35.4398L65.0288 35.6166L65.0332 35.8181L65.0136 36.2L65.0143 36.3768L64.9939 36.5819L64.9947 36.7587L64.943 37.0948L64.9896 37.2396L64.959 37.5473L64.9809 37.6957L64.9467 37.9787L64.93 38.2086L64.8885 38.4421L64.8921 38.4668L64.8856 38.5941L64.9111 38.7672L64.8907 38.9724L64.8885 39.3012L64.9067 39.4249L64.8514 39.7362L64.898 39.881L64.8711 40.2135L64.8224 40.3975L64.8231 40.5743L64.7955 40.73L64.8246 40.9278L64.8013 41.285L64.7984 41.4371L64.7999 41.7906L64.8508 42.1369L64.8028 42.4977L64.8283 42.6709L64.8297 43.0244L64.7599 43.2368L64.8072 43.5584L64.8014 43.8625L64.7745 44.1949L64.7017 44.5594L64.7039 45.0897L64.7549 45.436L64.7061 45.62L64.7076 45.9736L64.7047 46.1256L64.7549 46.2951L64.6749 46.6101L64.6967 46.7585L64.6698 47.091L64.6705 47.2677L64.6189 47.6038L64.6691 47.7733L64.6735 47.9748L64.6495 48.1553L65.342 48.0534L65.8403 48.0054L66.0317 48.1036L66.0048 48.436L65.9982 48.5633L66.02 48.7117L65.9677 48.871L66.0142 49.0158L65.9866 49.1715L65.9742 49.6029L65.9924 49.7265L65.9619 50.0343L65.9801 50.1579L65.943 50.593L65.9466 50.6177L65.9481 50.9713L65.9459 51.3001L65.9045 51.5336L65.9125 51.7598L65.903 52.0392L65.847 53.0329L65.8267 53.2381L65.831 53.4396L65.7787 53.5989L65.6164 53.6985L65.2454 53.7531L64.8781 53.8324L64.5565 53.8797ZM69.7095 31.6937L69.2818 31.706L68.7871 31.7788L68.5114 31.7941L68.4088 31.7839L68.3513 31.5649L68.2713 31.0208L68.2247 30.876L68.2414 30.6461L68.3251 30.3559L68.3222 29.6488L68.2676 29.2778L68.3483 29.1395L68.5178 29.0893L68.6342 29.0217L68.963 29.0239L70.645 28.7765L70.8363 28.8747L70.9534 28.9838L71.0218 29.277L70.9483 29.4646L71.0233 29.6305L71.0269 29.6552L71.0211 29.9593L70.9484 30.3238L71.0415 30.6133L70.9964 30.8221L71.0502 31.0163L70.9106 31.4412L70.6494 31.5554L69.7095 31.6937ZM73.7906 31.0934L73.4618 31.0912L72.8434 31.1821L72.6914 31.1792L72.4652 31.1872L72.4324 30.9646L72.3429 30.6998L72.332 30.6256L72.3524 30.4205L72.2811 30.2794L72.4215 30.0313L72.3815 29.7592L72.3538 29.0558L72.4229 28.6666L72.4047 28.5429L72.5247 28.5L72.7153 28.4214L73.0936 28.4163L74.726 28.1762L74.8679 28.2817L75.1334 28.3689L75.2018 28.6621L75.0789 28.8571L75.1043 29.0302L75.0585 29.0622L75.0527 29.3663L75.0542 29.7199L75.1226 30.013L75.1808 30.4088L75.0789 30.5754L74.9669 30.8445L74.6563 30.966L73.7906 31.0934ZM70.6085 50.69L70.135 50.7344L69.4919 50.829L69.3151 50.8298L68.0042 51.0226L67.7743 51.0059L67.6674 50.7942L67.7088 50.5606L67.7256 50.3308L67.7205 49.9525L67.7117 49.5495L67.7561 49.1639L67.7226 48.7645L67.7677 48.5557L67.735 48.3331L67.759 48.1527L67.7335 47.9796L67.7539 47.7744L67.7531 47.5977L67.7269 47.2477L67.7291 46.9189L67.7989 46.7065L67.7902 46.3035L67.7647 46.1304L67.7851 45.9252L67.7872 45.5964L67.7691 45.4727L67.8243 45.1614L67.7778 45.0166L67.8047 44.6841L67.8534 44.5001L67.8527 44.3233L67.8723 43.9414L67.8963 43.761L67.9188 43.227L67.8643 42.856L67.9123 42.4952L67.9072 42.1169L67.9559 41.9328L67.9515 41.7313L67.9508 41.5546L67.9253 41.3814L68.0024 41.2185L68.0417 40.4546L68.0868 40.2458L68.1108 40.0654L68.0642 39.9207L68.0875 39.5635L68.1319 39.1779L68.0547 38.4817L68.1035 38.2977L68.0518 37.7746L68.1289 37.6117L68.1493 37.4065L68.1485 37.2297L68.102 37.085L68.1012 36.9082L68.1529 36.5721L68.1514 36.2186L68.2038 36.0592L68.1783 35.8861L68.2271 35.7021L68.1805 35.5573L68.2045 35.3769L68.1819 35.0517L68.2096 34.896L68.2125 34.744L68.1899 34.4188L68.1928 34.2668L68.1179 34.1009L68.1484 33.7932L68.2008 33.6339L68.2037 33.4818L68.3798 33.3043L68.8002 33.2425L68.945 33.1959L69.1218 33.1952L69.4149 33.1268L69.5881 33.1013L69.7896 33.0969L70.0369 33.0606L70.5774 32.9558L72.4288 32.6582L73.0013 32.5992L73.2029 32.5949L73.9165 32.4646L74.4606 32.3846L74.6796 32.3271L74.9306 32.3155L75.1568 32.3075L75.306 32.4624L75.2718 32.7454L75.2936 32.8938L75.3351 33.5194L75.3569 33.6678L75.3082 33.8519L75.3089 34.0287L75.306 34.1807L75.2864 34.5626L75.3155 34.7605L75.2675 35.1213L75.2646 35.2734L75.2377 35.6058L74.994 35.6669L73.9552 35.8197L73.662 35.8881L72.0543 36.1246L71.4643 36.2366L71.4338 36.5444L71.4345 36.7211L71.4854 37.0674L71.4331 37.2267L71.4622 37.4246L71.4571 37.9055L71.4586 38.259L71.4353 38.6162L71.4113 38.7966L71.4651 38.9908L71.4273 39.2491L71.4433 39.7016L71.8885 39.6361L72.7579 39.5335L73.2205 39.4149L73.8636 39.3203L74.0688 39.3407L74.2463 39.5167L74.2405 39.8208L74.2696 40.0187L74.2601 40.298L74.2368 40.6552L74.2128 40.8356L74.1932 41.2175L74.2187 41.3907L74.1736 41.5995L74.175 41.953L74.1591 42.3597L74.1605 42.7132L74.1183 42.77L73.871 42.8064L73.5036 42.8857L73.281 42.9184L72.6663 43.0341L72.2422 43.0712L71.9701 43.1112L71.6522 43.1833L71.4296 43.216L71.3707 43.5026L71.3438 43.8351L71.3467 44.5422L71.3089 44.8004L71.2922 45.0303L71.3038 45.2813L71.2798 45.4617L71.2711 45.9178L71.2668 46.5755L71.2959 46.7733L71.4094 46.8577L71.7629 46.8562L73.2222 46.6416L73.5721 46.6154L74.1199 46.5601L74.8088 46.4335L74.9929 46.4822L74.9972 46.6837L74.9871 46.7863L74.9776 47.0657L74.982 47.2672L74.9631 47.8259L75.0104 48.1474L74.9864 48.3278L74.9587 48.4835L74.9595 48.6603L74.9398 49.0422L74.977 49.4663L74.9602 49.6962L74.926 49.9792L72.5763 50.3248L72.1842 50.4077L71.859 50.4303L71.7143 50.4769L71.1949 50.5533L70.8028 50.6362L70.6085 50.69ZM90.2406 47.8276L90.0355 47.8073L89.3677 47.9055L89.0919 47.9208L88.9188 47.9462L88.742 47.947L88.5609 47.7462L88.5565 47.5447L88.5485 47.3184L88.5652 47.0886L88.6387 46.9009L88.5878 46.5546L88.6103 46.0206L88.6096 45.8439L88.5841 45.6707L88.5834 45.4939L88.5608 45.1688L88.5921 45.0378L88.5659 44.6879L88.5855 44.306L88.5659 43.8288L88.6051 43.0649L88.664 42.7783L88.6771 42.5237L88.6335 42.2269L88.6567 41.8697L88.6807 41.6893L88.6793 41.3357L88.6538 41.1626L88.6596 40.8585L88.4406 40.916L88.2675 40.9414L88.0376 40.9247L87.2571 41.1153L86.8751 41.0957L86.451 41.1328L86.4445 41.2601L86.4488 41.4616L86.4008 41.8225L86.3987 42.1513L86.3252 42.339L86.3871 42.7595L86.3631 42.9399L86.3231 43.5269L86.2547 44.0929L86.3013 44.2377L86.2212 44.5527L86.2147 44.68L86.1631 45.0161L86.1682 45.3944L86.1216 46.1087L86.126 46.3102L86.1027 46.6674L86.1282 46.8406L86.1297 47.1941L86.1093 47.3993L86.11 47.576L86.1151 47.9543L86.0279 48.2199L85.8445 48.3479L85.6256 48.4054L85.3324 48.4738L84.9687 48.5778L84.7708 48.6069L84.5867 48.5582L84.4172 48.6084L84.2514 48.6833L83.9473 48.6775L83.1558 48.7939L82.6539 48.8172L82.5149 48.5597L82.4858 48.3618L82.552 48.1247L82.6284 47.7849L82.6167 47.534L82.6335 47.3041L82.608 47.1309L82.6356 46.9753L82.5607 46.8094L82.6691 46.5155L82.6931 46.3351L82.6392 46.1409L82.6872 45.78L82.6116 45.4374L82.685 45.2497L82.7512 45.0125L82.7505 44.8358L82.7214 44.6379L82.7447 44.2807L82.765 44.0756L82.7614 43.1917L82.789 43.036L82.7919 42.884L82.8123 42.6788L82.7621 42.5093L82.8101 42.1485L82.7875 41.8233L82.8253 41.5651L82.8311 41.261L82.8057 41.0878L82.8006 40.7096L82.8493 40.5255L82.8944 40.3167L82.8653 40.1188L82.9133 39.758L82.9315 39.0225L82.9344 38.8705L82.9329 38.517L82.9067 38.167L83.0042 37.7989L83.0034 37.6222L82.9772 37.2723L82.9998 36.7383L83.0019 36.4095L83.0223 36.2043L83.0201 35.674L83.0266 35.5467L82.9757 35.2004L83.0455 34.988L83.0412 34.7865L83.0441 34.6344L83.071 34.302L82.9946 33.7826L83.1204 33.4356L83.0448 33.0929L83.0688 32.9125L83.068 32.7357L83.1168 32.5517L83.0629 32.3575L83.0869 32.1771L83.1138 31.8446L83.0949 31.5442L83.0796 31.2684L83.284 31.112L83.9024 31.0211L84.9128 30.8472L85.2627 30.821L85.8069 30.7409L86.0433 30.6304L86.3474 30.6362L86.602 30.6493L86.6842 30.8646L86.706 31.013L86.7562 31.1825L86.7257 31.4902L86.7228 31.6422L86.749 31.9922L86.7075 32.2257L86.7155 32.4519L86.6857 32.9364L86.6872 33.29L86.7061 33.5904L86.6574 33.7745L86.7156 34.1702L86.6916 34.3506L86.6712 34.5558L86.6938 34.8809L86.6625 35.0119L86.6814 35.3123L86.7033 35.4607L86.672 35.5917L86.6516 35.7968L86.6524 35.9736L86.6 36.1329L86.6502 36.3024L86.6233 36.6349L86.5993 36.8153L86.6459 36.9601L86.6255 37.1652L86.6226 37.3172L86.6022 37.5224L86.779 37.5217L86.9769 37.4926L87.6978 37.4118L87.892 37.3579L88.1925 37.339L88.3867 37.2852L88.9097 37.2335L88.9163 37.1062L88.9257 36.8269L88.9919 36.5897L88.9665 36.4166L88.9657 36.2398L89.0348 35.8506L88.9635 35.7095L89.0399 35.3697L89.0428 35.2177L89.0421 35.0409L89.0377 34.8394L89.037 34.6626L89.0646 34.507L89.0391 34.3338L89.0661 34.0014L89.0435 33.6762L89.1097 33.439L89.066 33.1422L89.0122 32.948L89.0115 32.7712L89.0595 32.4104L89.0303 32.2125L89.0573 31.8801L89.0849 31.7244L89.0871 31.3956L89.09 31.2435L89.1562 31.0064L89.1802 30.8259L89.13 30.6564L89.1329 30.5044L89.298 30.2527L89.4428 30.2061L89.6617 30.1487L90.5521 30.0177L91.0505 29.9697L91.743 29.8678L92.146 29.859L92.3301 29.9078L92.536 30.1049L92.5331 30.257L92.5833 30.4265L92.5061 30.5894L92.5454 30.6847L92.5425 30.8368L92.568 31.0099L92.5127 31.3213L92.5389 31.6712L92.568 31.869L92.5688 32.0458L92.5448 32.2262L92.5244 32.4314L92.547 32.7565L92.5724 32.9297L92.5703 33.2585L92.571 33.4353L92.5441 33.7677L92.5448 33.9445L92.5208 34.1249L92.5252 34.3264L92.523 34.6552L92.5201 34.8073L92.4401 35.1223L92.4372 35.2743L92.435 35.6031L92.4438 36.0062L92.4736 36.3808L92.4009 36.7453L92.4307 37.1199L92.4278 37.272L92.4045 37.6291L92.4053 37.8059L92.3282 37.9689L92.3573 38.1667L92.4322 38.3326L92.3798 38.4919L92.3806 38.6687L92.4278 38.9902L92.4286 39.167L92.3522 39.5067L92.3529 39.6835L92.3195 40.1433L92.3413 40.2917L92.3319 40.571L92.3086 40.9282L92.2846 41.1086L92.3312 41.2534L92.2592 41.7946L92.3057 41.9394L92.2817 42.1198L92.2541 42.2755L92.2548 42.4523L92.2315 42.8095L92.2607 43.0073L92.2614 43.1841L92.2381 43.5413L92.2039 43.8243L92.1763 43.98L92.2025 44.3299L92.236 44.7293L92.2127 45.0864L92.2134 45.2632L92.2113 45.592L92.1873 45.7725L92.2026 46.0482L92.1967 46.3522L92.1407 46.4868L92.1451 46.6883L92.1211 46.8688L92.1502 47.0666L92.1262 47.247L92.0491 47.41L91.7632 47.5279L91.3922 47.5824L91.2474 47.629L90.9295 47.701L90.4349 47.7738L90.2406 47.8276ZM97.9027 46.6753L97.4292 46.7197L96.7861 46.8143L96.6093 46.815L95.2984 47.0079L95.0685 46.9911L94.9616 46.7794L95.003 46.5459L95.0198 46.316L95.0147 45.9378L95.0059 45.5347L95.0503 45.1492L95.0168 44.7498L95.0619 44.541L95.0292 44.3184L95.0532 44.138L95.0277 43.9649L95.0481 43.7597L95.0473 43.5829L95.0211 43.233L95.0233 42.9042L95.0931 42.6918L95.0844 42.2888L95.0589 42.1156L95.0793 41.9105L95.0815 41.5817L95.0633 41.458L95.1185 41.1466L95.072 41.0019L95.0989 40.6694L95.1476 40.4854L95.1469 40.3086L95.1665 39.9267L95.1905 39.7463L95.2131 39.2123L95.1585 38.8413L95.2065 38.4805L95.2014 38.1022L95.2501 37.9181L95.2457 37.7166L95.245 37.5398L95.2195 37.3667L95.2966 37.2037L95.3359 36.4399L95.381 36.2311L95.405 36.0507L95.3584 35.9059L95.3817 35.5487L95.4261 35.1632L95.3489 34.467L95.3977 34.2829L95.346 33.7599L95.4231 33.5969L95.4435 33.3918L95.4427 33.215L95.3962 33.0703L95.3954 32.8935L95.4471 32.5574L95.4456 32.2038L95.498 32.0445L95.4725 31.8714L95.5213 31.6873L95.4747 31.5426L95.4987 31.3622L95.4761 31.037L95.5038 30.8813L95.5067 30.7293L95.4841 30.4041L95.487 30.252L95.4121 30.0862L95.4426 29.7785L95.495 29.6191L95.4979 29.4671L95.674 29.2896L96.0944 29.2277L96.2392 29.1812L96.416 29.1804L96.7091 29.112L96.8823 29.0866L97.0838 29.0822L97.3311 29.0458L97.8716 28.9411L99.723 28.6435L100.296 28.5845L100.497 28.5801L101.211 28.4499L101.755 28.3699L101.974 28.3124L102.225 28.3007L102.451 28.2927L102.6 28.4477L102.566 28.7307L102.588 28.8791L102.629 29.5047L102.651 29.6531L102.602 29.8372L102.603 30.0139L102.6 30.166L102.581 30.5479L102.61 30.7458L102.562 31.1066L102.559 31.2586L102.532 31.5911L102.288 31.6522L101.249 31.805L100.956 31.8734L99.3485 32.1099L98.7585 32.2219L98.728 32.5296L98.7287 32.7064L98.7796 33.0527L98.7273 33.212L98.7564 33.4099L98.7513 33.8907L98.7528 34.2443L98.7295 34.6015L98.7055 34.7819L98.7593 34.9761L98.7215 35.2344L98.7375 35.6869L99.1827 35.6214L100.052 35.5188L100.515 35.4002L101.158 35.3056L101.363 35.326L101.54 35.502L101.535 35.8061L101.564 36.0039L101.554 36.2833L101.531 36.6405L101.507 36.8209L101.487 37.2028L101.513 37.376L101.468 37.5847L101.469 37.9383L101.453 38.3449L101.455 38.6985L101.413 38.7552L101.165 38.7916L100.798 38.8709L100.575 38.9037L99.9605 39.0194L99.5364 39.0565L99.2643 39.0965L98.9464 39.1685L98.7238 39.2013L98.6649 39.4879L98.638 39.8203L98.6409 40.5274L98.6031 40.7857L98.5864 41.0156L98.598 41.2666L98.574 41.447L98.5653 41.9031L98.561 42.5607L98.5901 42.7586L98.7036 42.843L99.0571 42.8415L100.516 42.6269L100.866 42.6007L101.414 42.5454L102.103 42.4188L102.287 42.4675L102.291 42.669L102.281 42.7716L102.272 43.0509L102.276 43.2524L102.257 43.8111L102.305 44.1327L102.281 44.3131L102.253 44.4688L102.254 44.6455L102.234 45.0275L102.271 45.4516L102.254 45.6815L102.22 45.9644L99.8705 46.3101L99.4784 46.393L99.1533 46.4156L99.0085 46.4621L98.4891 46.5385L98.097 46.6215L97.9027 46.6753ZM112.15 44.6555L111.871 44.646L111.673 44.6751L111.496 44.6759L111.249 44.7122L110.337 44.8716L110.139 44.9007L109.91 44.884L109.795 44.6228L109.883 44.3573L109.899 44.1274L109.894 43.7491L109.885 43.3461L109.93 42.9605L109.896 42.5612L109.941 42.3524L109.909 42.1298L109.933 41.9493L109.907 41.7762L109.928 41.5711L109.927 41.3943L109.901 41.0444L109.903 40.7156L109.973 40.5031L109.964 40.1001L109.938 39.927L109.959 39.7218L109.961 39.393L109.943 39.2693L109.998 38.958L109.952 38.8132L109.978 38.4808L110.027 38.2967L110.026 38.1199L109.997 37.7453L110.043 37.0309L109.989 36.6599L110.037 36.2991L110.031 35.9208L110.08 35.7367L110.076 35.5352L110.05 35.1853L110.127 35.0224L110.117 34.2658L110.162 34.057L110.186 33.8766L110.139 33.7318L110.162 33.3747L110.182 32.9927L110.154 32.2893L110.203 32.1052L110.201 31.5749L110.278 31.4119L110.298 31.2068L110.298 31.03L110.251 30.8852L110.25 30.7085L110.302 30.3724L110.3 30.0188L110.353 29.8595L110.327 29.6864L110.376 29.5023L110.33 29.3576L110.354 29.1771L110.331 28.852L110.359 28.6963L110.361 28.5442L110.339 28.2191L110.342 28.067L110.267 27.9012L110.297 27.5934L110.35 27.4341L110.353 27.2821L110.55 27.0762L111.111 26.9431L111.256 26.8965L111.429 26.871L111.684 26.8841L111.857 26.8587L112.059 26.8543L112.306 26.8179L112.846 26.7131L116.172 26.2998L116.539 26.2205L116.709 26.1703L117.458 26.1106L117.702 26.0495L117.928 26.0415L118.274 25.9906L118.444 25.9404L119.754 25.7476L119.924 25.6974L120.207 25.7315L120.342 25.9643L120.339 26.1164L120.387 26.4379L120.348 26.5194L120.363 26.7951L120.41 26.9399L120.35 27.0497L120.383 27.2723L120.327 27.4069L120.329 27.7604L120.262 27.9976L120.291 28.1955L120.289 28.3475L120.314 28.5207L120.311 28.6727L120.282 29.334L120.273 29.6133L120.245 29.769L120.239 30.0731L120.24 30.2499L120.259 30.5503L120.26 30.7271L120.257 31.0559L120.227 31.3636L120.2 31.6961L120.193 31.8234L120.17 32.1806L120.129 32.4141L120.161 32.6367L120.162 32.8135L120.166 33.015L120.192 33.1881L120.19 33.5169L120.152 33.7752L120.143 34.2313L120.162 34.5317L120.138 34.7122L120.115 35.0693L120.144 35.2672L120.115 35.9285L120.109 36.2326L120.061 36.5934L120.09 36.7913L120.046 37.1768L120.075 37.3747L120.073 37.7035L120.066 37.8308L120.117 38.1771L120.03 38.4426L120.095 38.7111L120.075 39.093L120.079 39.2945L120.028 39.6306L120.057 39.8285L120.034 40.1856L120.035 40.5392L120.033 40.868L120.058 41.0411L120.024 41.3241L120.013 41.9323L119.986 42.2648L119.987 42.6183L119.96 42.9508L119.965 43.1523L119.923 43.3858L119.662 43.5L119.019 43.5946L118.842 43.5953L118.125 43.7008L117.771 43.7023L117.573 43.7314L117.404 43.7816L117.128 43.7969L116.951 43.7976L116.757 43.8515L116.552 43.8311L116.311 43.7402L116.278 43.5176L116.276 42.9872L116.317 42.577L116.34 42.2198L116.318 42.0714L116.314 41.8699L116.334 41.4879L116.333 41.3112L116.353 41.106L116.353 40.9292L116.404 40.5931L116.358 40.4484L116.388 40.1407L116.387 39.9639L116.422 39.6809L116.442 39.4757L116.483 39.2422L116.5 39.0123L116.506 38.7083L116.481 38.5351L116.505 38.3547L116.507 38.2027L116.507 38.0259L116.457 37.8564L116.546 37.2621L116.541 36.8838L116.519 36.7354L116.542 36.3782L116.545 36.2261L116.544 35.8726L116.493 35.5263L116.491 35.1728L116.515 34.9923L116.489 34.6424L116.559 34.43L116.512 34.1085L116.518 33.8044L116.544 33.4719L116.568 33.1147L116.565 32.5844L116.518 32.2629L116.567 32.0788L116.565 31.7253L116.568 31.5732L116.518 31.4037L116.573 31.0924L116.576 30.9403L116.6 30.5831L116.599 30.4064L116.651 30.0703L116.6 29.9008L116.596 29.6993L116.581 29.6003L115.815 29.7131L115.588 29.7211L114.08 29.9431L113.737 30.0187L113.706 30.3264L113.707 30.5032L113.758 30.8495L113.706 31.0088L113.735 31.2067L113.68 31.6948L113.682 32.0484L113.677 32.5292L113.639 32.7875L113.658 33.0879L113.649 33.544L113.663 34.3253L113.63 34.9619L113.636 35.5169L113.579 36.1571L113.6 36.3055L113.6 36.9879L113.541 37.2745L113.563 37.5997L113.568 37.978L113.57 38.3315L113.532 38.5898L113.54 38.816L113.552 39.067L113.528 39.2474L113.519 39.7035L113.465 40.3684L113.494 40.5663L113.464 40.874L113.438 41.3833L113.447 41.9631L113.44 42.7727L113.394 43.6639L113.391 43.8159L113.431 44.088L113.393 44.3463L113.129 44.4357L112.878 44.4474L112.683 44.5012L112.323 44.63L112.15 44.6555ZM124.022 42.8335L123.622 42.8669L123.446 42.8677L123.004 42.9579L122.837 42.856L122.768 42.3861L122.821 42.2268L122.77 42.0573L122.794 41.7001L122.772 41.5517L122.795 41.1945L122.815 40.8126L122.842 40.4801L122.841 40.3034L122.871 39.9956L122.871 39.8189L122.874 39.6668L122.889 39.0834L122.941 38.9241L122.919 38.5989L122.918 38.4221L122.946 38.2664L122.997 37.9303L123 37.7783L122.981 37.4779L122.963 37.3542L123.05 37.0887L123.01 36.8166L123.038 36.6609L123.013 36.4878L123.065 36.3285L123.035 35.9538L123.033 35.4235L123.082 35.2394L123.077 35.0379L123.051 34.688L123.075 34.5076L123.078 34.3556L123.102 34.1751L123.105 34.0231L123.128 33.6659L123.124 33.4644L123.119 33.0861L123.135 32.6795L123.162 32.347L123.118 32.0502L123.095 31.725L123.119 31.5446L123.168 31.3606L123.145 31.0354L123.148 30.8833L123.189 30.473L123.174 30.1973L123.135 30.102L123.161 29.7696L123.164 29.6175L123.124 29.1687L123.144 28.9635L123.167 28.6064L123.209 28.3728L123.19 28.0724L123.214 27.892L123.185 27.6941L123.209 27.5137L123.208 27.3369L123.186 27.1885L123.21 27.0081L123.251 26.5978L123.25 26.421L123.246 26.2195L123.269 25.8623L123.265 25.6608L123.316 25.3247L123.5 25.1967L124.786 25.0075L125.104 24.9355L125.429 24.9129L125.574 24.8664L127.231 24.6226L127.408 24.6219L127.775 24.5426L128.121 24.4916L128.499 24.4865L128.697 24.4574L129.026 24.4596L129.556 24.4574L129.963 24.4734L130.144 24.4974L130.335 24.5956L130.519 24.6443L130.866 24.7702L131.118 24.9353L131.235 25.0444L131.412 25.2205L131.586 25.3718L131.689 25.5587L131.885 25.8584L131.96 26.0243L132.099 26.2818L132.164 26.5502L132.214 26.7197L132.328 26.9809L132.34 27.2319L132.419 27.5992L132.445 27.7724L132.509 28.0408L132.525 28.3165L132.515 28.5959L132.516 28.7727L132.546 29.3241L132.548 29.6776L132.499 29.8617L132.504 30.0632L132.455 30.2472L132.452 30.3993L132.424 30.555L132.401 30.9121L132.356 31.1209L132.283 31.4854L132.154 31.9844L132.071 32.2747L131.941 32.597L131.773 33.0007L131.647 33.171L131.517 33.4932L131.324 33.7239L131.187 33.9967L131.089 34.188L130.804 34.4826L130.702 34.6492L130.381 34.8733L130.145 34.9839L129.845 35.1796L129.467 35.3614L129.178 35.4546L128.86 35.5266L128.521 35.627L127.836 35.7783L127.362 35.8227L126.818 35.9028L126.443 35.9326L126.451 35.9821L126.451 36.1588L126.406 36.3676L126.429 36.6928L126.397 36.8238L126.42 37.1489L126.417 37.301L126.418 37.4777L126.39 37.6334L126.391 37.8102L126.413 37.9586L126.389 38.3158L126.348 38.5493L126.342 38.8534L126.318 39.0338L126.288 39.3415L126.288 39.5183L126.24 39.7024L126.276 39.9497L126.256 40.3316L126.307 40.6779L126.23 40.8408L126.259 41.0387L126.26 41.2155L126.232 41.3712L126.233 41.548L126.188 41.7567L126.196 41.983L126.2 42.1845L126.17 42.4922L126 42.5424L124.022 42.8335ZM126.504 32.7397L127.147 32.6451L127.412 32.5557L127.875 32.4371L128.037 32.3374L128.389 31.9824L128.625 31.695L128.758 31.3975L128.835 31.2345L128.908 30.8701L128.924 30.6402L128.991 30.403L129.028 29.968L129.025 29.2609L128.98 28.6105L128.918 28.1901L128.775 27.9078L128.594 27.707L128.293 27.5492L128.063 27.5325L127.392 27.606L126.826 27.7144L126.66 27.7893L126.58 28.1043L126.549 28.2352L126.561 28.4862L126.573 28.914L126.549 29.0944L126.519 29.4021L126.517 29.9077L126.504 30.1623L126.488 30.569L126.507 30.8694L126.536 31.0673L126.519 31.2972L126.487 31.9337L126.519 32.1563L126.496 32.5135L126.504 32.7397ZM139.509 40.9344L138.855 40.9548L138.537 41.0268L138.361 41.0276L138.134 41.0356L137.54 40.9461L137.338 40.9505L136.953 40.9061L136.765 40.8327L136.386 40.661L135.886 40.3555L135.482 40.0107L135.39 39.8979L135.248 39.7924L135.152 39.6549L135.003 39.5L134.757 39.2076L134.736 39.0592L134.636 38.8969L134.589 38.7522L134.522 38.6358L134.45 38.4946L134.4 38.3251L134.329 38.184L134.253 37.8414L134.207 37.6966L134.06 37.2129L134.084 37.0324L134.015 36.5625L134.052 36.3042L133.999 36.11L133.973 35.9369L133.942 35.3855L133.99 35.0246L133.961 34.8268L133.96 34.4732L133.934 34.3001L133.982 33.9392L133.915 33.8228L133.917 33.494L133.941 33.3136L133.95 32.8575L133.98 32.5498L133.933 32.2282L133.963 31.9205L133.938 31.7474L133.99 31.5881L134.014 31.4076L133.993 31.2592L134.017 31.0788L133.97 30.9341L134.082 30.6649L134.106 30.4845L134.055 30.1382L134.061 29.8341L134.11 29.6501L134.113 29.498L134.111 29.1445L134.119 28.5116L134.217 28.3203L134.219 27.9914L134.321 27.6481L134.369 27.464L134.425 27.1527L134.497 26.7882L134.602 26.4696L134.675 26.2819L134.851 25.9276L134.85 25.7508L134.927 25.5879L135.078 25.2372L135.232 24.9113L135.387 24.7622L135.489 24.5956L135.78 24.1736L136.069 23.9037L136.256 23.8004L136.411 23.6513L136.682 23.4345L136.957 23.2424L137.314 23.0889L137.459 23.0424L137.815 22.8889L138.059 22.8277L138.493 22.688L138.836 22.6124L139.129 22.544L139.578 22.5032L139.73 22.5061L140.006 22.4909L140.409 22.4821L140.617 22.5272L140.819 22.5228L140.975 22.5505L141.371 22.669L141.86 22.9004L142.076 22.9949L142.221 23.1251L142.526 23.3077L142.835 23.515L142.98 23.6453L143.08 23.8075L143.276 24.1072L143.372 24.2447L143.443 24.3858L143.518 24.5517L143.647 24.9118L143.765 25.3744L143.819 25.5687L143.844 25.7418L143.867 26.067L143.864 26.219L143.936 26.5369L143.962 26.7101L143.984 27.0352L143.96 27.2157L143.957 27.3677L144.007 27.5372L144.044 27.7845L144.041 27.9366L144.042 28.2901L144.072 28.6648L144.106 29.0641L144.082 29.2446L144.09 29.6476L144.152 29.8913L144.068 30.1815L144.136 30.4747L144.085 30.8108L144.083 31.1396L144.056 31.4721L144.075 31.7725L144.048 32.105L143.995 32.2643L143.987 32.7204L144.019 32.943L143.995 33.1234L143.997 33.477L143.944 33.6363L143.824 34.5384L143.871 34.6831L143.791 34.9981L143.739 35.1574L143.754 35.4332L143.67 35.7234L143.64 36.0311L143.665 36.2043L143.631 36.4873L143.533 36.6786L143.544 36.9296L143.422 37.3013L143.29 37.7756L143.192 37.967L143.016 38.3212L142.939 38.4842L142.837 38.6508L142.81 38.8065L142.557 39.1469L142.426 39.2924L142.325 39.459L142.06 39.7253L141.793 39.9668L141.705 40.0556L141.169 40.3618L140.999 40.412L140.808 40.4906L140.473 40.6158L140.304 40.666L140.042 40.7802L139.509 40.9344ZM138.817 37.5997L139.138 37.5524L139.47 37.4026L139.678 37.2709L139.988 36.9726L140.11 36.6009L140.207 36.2328L140.231 36.0523L140.202 35.8545L140.222 35.4726L140.246 35.2921L140.245 34.9386L140.29 34.7298L140.263 34.3799L140.312 34.1958L140.339 33.8634L140.335 33.6619L140.387 33.5026L140.358 33.3047L140.322 33.2341L140.364 33.0006L140.383 32.6187L140.349 32.0425L140.391 31.809L140.436 31.6002L140.416 31.123L140.468 30.9637L140.382 30.5468L140.426 30.1613L140.432 29.8572L140.452 29.6521L140.476 29.4716L140.426 29.3021L140.404 28.977L140.424 28.7718L140.447 28.4146L140.464 28.1848L140.417 27.8632L140.401 27.4107L140.378 27.0855L140.377 26.732L140.205 26.2519L140.084 26.118L139.878 25.9209L139.457 25.806L138.991 25.8998L138.8 25.9784L138.426 26.185L138.212 26.444L138.079 26.7415L138.023 27.0529L137.95 27.2406L137.849 27.5839L137.825 27.7644L137.804 27.9695L137.732 28.5107L137.74 28.5602L137.744 28.7617L137.721 29.1189L137.718 29.2709L137.67 29.6318L137.647 29.989L137.631 30.3956L137.631 30.5724L137.607 30.7528L137.612 31.1311L137.567 31.3399L137.527 31.7502L137.503 31.9306L137.504 32.2841L137.53 32.4573L137.53 32.634L137.584 32.8283L137.535 33.0123L137.463 33.3768L137.516 33.571L137.492 33.7514L137.532 33.8467L137.515 34.0766L137.544 34.2745L137.52 34.4549L137.549 34.6528L137.53 35.0347L137.555 35.2078L137.506 35.3919L137.606 35.5541L137.625 35.8546L137.562 36.1164L137.662 36.2787L137.764 36.9712L137.864 37.1334L137.928 37.2251L138.109 37.4259L138.251 37.5314L138.459 37.5765L138.665 37.5968L138.817 37.5997ZM148.219 39.2742L148.018 39.2786L147.841 39.2793L146.481 39.4794L146.251 39.4627L146.136 39.2016L146.203 38.9644L146.225 38.4304L146.235 38.3279L146.227 37.9248L146.271 37.5393L146.237 37.1399L146.283 36.9311L146.25 36.7085L146.274 36.5281L146.248 36.355L146.269 36.1498L146.272 35.9978L146.245 35.6479L146.248 35.319L146.317 35.1066L146.309 34.7036L146.283 34.5305L146.304 34.3253L146.306 33.9965L146.288 33.8728L146.343 33.5615L146.296 33.4167L146.323 33.0843L146.372 32.9002L146.371 32.7234L146.388 32.4935L146.37 32.3699L146.408 32.2884L146.415 32.1611L146.437 31.6271L146.383 31.2561L146.431 30.8953L146.426 30.517L146.474 30.333L146.47 30.1314L146.444 29.7815L146.521 29.6186L146.56 28.8547L146.605 28.6459L146.633 28.4903L146.586 28.3455L146.61 27.9883L146.654 27.6028L146.577 26.9066L146.626 26.7225L146.574 26.1995L146.651 26.0365L146.671 25.8314L146.671 25.6546L146.624 25.5098L146.623 25.3331L146.675 24.997L146.674 24.6434L146.726 24.4841L146.7 24.311L146.749 24.1269L146.703 23.9821L146.727 23.8017L146.704 23.4765L146.732 23.3209L146.735 23.1688L146.712 22.8436L146.715 22.6916L146.64 22.5257L146.671 22.218L146.723 22.0587L146.737 21.9809L146.983 21.7677L147.375 21.6848L147.52 21.6382L147.693 21.6127L147.944 21.6011L148.563 21.5101L149.103 21.4054L150.909 21.1398L153.336 20.808L153.707 20.7534L153.884 20.7527L154.103 20.6952L154.375 20.6552L154.775 20.6217L154.906 20.8298L154.879 21.1622L154.901 21.3106L154.868 21.9471L154.89 22.0956L154.866 22.276L154.867 22.4527L154.864 22.6048L154.82 22.9903L154.824 23.1919L154.811 23.4465L154.734 23.6094L154.675 23.896L154.439 24.0066L152.365 24.337L150.336 24.6353L149.994 24.711L149.963 25.0187L149.964 25.1955L150.015 25.5417L149.962 25.701L149.992 25.8989L149.986 26.3798L149.988 26.7333L149.941 27.2709L149.97 27.4688L149.989 27.7692L149.944 27.978L150.488 27.898L150.707 27.8405L151.036 27.8427L151.382 27.7918L151.785 27.783L152.304 27.7066L152.838 27.7291L153.227 27.7982L153.408 27.8222L153.624 27.9168L153.812 27.9903L154.134 28.1198L154.41 28.2812L154.503 28.394L154.705 28.5664L154.854 28.7213L154.982 28.9047L155.178 29.2044L155.228 29.3739L155.367 29.6314L155.456 29.8962L155.482 30.0693L155.6 30.3552L155.636 30.6026L155.715 30.9699L155.716 31.1467L155.781 31.4151L155.821 31.6872L155.812 31.9666L155.784 32.1222L155.793 32.5253L155.794 32.8788L155.77 33.0592L155.75 33.2644L155.726 33.4448L155.695 33.7525L155.672 34.1097L155.602 34.3221L155.529 34.6866L155.401 35.1856L155.317 35.4759L155.069 36.1946L154.939 36.3401L154.809 36.6624L154.64 36.8894L154.454 37.1695L154.331 37.3644L153.941 37.8009L153.641 37.9966L153.405 38.1072L153.08 38.3065L152.727 38.4848L152.438 38.5779L152.116 38.6252L151.777 38.7256L151.064 38.8559L149.774 39.0203L149.526 39.0567C149.015 39.1319 148.676 39.1733 148.509 39.1811L148.219 39.2742ZM150.711 35.5975L151.025 35.5008L151.311 35.3829L151.621 35.0846L151.835 34.8256L151.968 34.5281L152.07 34.3615L152.15 34.0465L152.192 33.813L152.222 33.5053L152.242 33.1234L152.236 32.5683L152.124 31.9783L152.037 31.5615L151.895 31.2792L151.738 31.0748L151.412 30.9206L151.204 30.8755L150.698 30.8741L150.108 30.9861L149.942 31.061L149.927 31.6445L149.868 31.9311L149.841 32.2636L149.846 32.6418L149.848 32.9954L149.81 33.2536L149.818 33.4799L149.83 33.7309L149.806 33.9113L149.797 34.3674L149.761 34.9792L149.765 35.1807L149.777 35.4317L149.781 35.6332L150.46 35.6092L150.711 35.5975ZM162.963 37.4846L162.309 37.505L161.991 37.577L161.814 37.5777L161.588 37.5858L160.994 37.4963L160.792 37.5007L160.407 37.4563L160.219 37.3828L159.84 37.2112L159.34 36.9056L158.936 36.5608L158.843 36.4481L158.701 36.3426L158.605 36.2051L158.456 36.0502L158.211 35.7577L158.189 35.6093L158.09 35.4471L158.043 35.3023L157.975 35.1859L157.904 35.0448L157.854 34.8753L157.783 34.7342L157.707 34.3916L157.66 34.2468L157.513 33.763L157.537 33.5826L157.468 33.1127L157.506 32.8544L157.452 32.6602L157.427 32.487L157.396 31.9356L157.444 31.5748L157.415 31.3769L157.414 31.0234L157.388 30.8502L157.436 30.4894L157.368 30.373L157.371 30.0442L157.395 29.8638L157.403 29.4077L157.434 29.0999L157.387 28.7784L157.417 28.4707L157.392 28.2976L157.444 28.1382L157.468 27.9578L157.446 27.8094L157.47 27.629L157.424 27.4842L157.536 27.2151L157.56 27.0347L157.509 26.6884L157.515 26.3843L157.563 26.2003L157.566 26.0482L157.565 25.6947L157.573 25.0618L157.671 24.8704L157.673 24.5416L157.774 24.1982L157.823 24.0142L157.878 23.7028L157.951 23.3384L158.056 23.0197L158.129 22.832L158.304 22.4778L158.304 22.301L158.381 22.138L158.531 21.7874L158.686 21.4615L158.841 21.3123L158.942 21.1457L159.234 20.7238L159.523 20.4539L159.71 20.3506L159.865 20.2015L160.136 19.9847L160.411 19.7926L160.768 19.6391L160.912 19.5925L161.269 19.439L161.513 19.3779L161.947 19.2382L162.289 19.1626L162.583 19.0942L163.031 19.0534L163.184 19.0563L163.459 19.041L163.862 19.0323L164.071 19.0774L164.273 19.073L164.428 19.1007L164.825 19.2192L165.314 19.4505L165.53 19.5451L165.675 19.6753L165.98 19.8579L166.288 20.0652L166.434 20.1954L166.534 20.3577L166.729 20.6574L166.825 20.7949L166.897 20.936L166.972 21.1018L167.1 21.4619L167.219 21.9246L167.273 22.1188L167.298 22.292L167.321 22.6172L167.318 22.7692L167.39 23.0871L167.415 23.2602L167.438 23.5854L167.414 23.7658L167.411 23.9179L167.461 24.0874L167.498 24.3347L167.495 24.4867L167.496 24.8403L167.526 25.2149L167.559 25.6143L167.535 25.7947L167.544 26.1978L167.605 26.4415L167.522 26.7317L167.59 27.0249L167.538 27.361L167.536 27.6898L167.509 28.0223L167.528 28.3227L167.501 28.6551L167.449 28.8145L167.44 29.2706L167.473 29.4932L167.449 29.6736L167.45 30.0272L167.398 30.1865L167.278 31.0885L167.325 31.2333L167.245 31.5483L167.192 31.7076L167.208 31.9833L167.124 32.2736L167.093 32.5813L167.119 32.7545L167.085 33.0374L166.986 33.2288L166.998 33.4797L166.876 33.8515L166.743 34.3258L166.645 34.5171L166.47 34.8714L166.393 35.0344L166.291 35.201L166.263 35.3566L166.01 35.6971L165.88 35.8426L165.778 36.0092L165.514 36.2755L165.246 36.517L165.158 36.6057L164.622 36.912L164.453 36.9622L164.262 37.0408L163.927 37.1659L163.757 37.2161L163.496 37.3304L162.963 37.4846ZM162.27 34.1499L162.592 34.1026L162.924 33.9527L163.132 33.8211L163.441 33.5228L163.564 33.151L163.661 32.7829L163.685 32.6025L163.656 32.4047L163.676 32.0227L163.7 31.8423L163.698 31.4888L163.743 31.28L163.717 30.9301L163.766 30.746L163.793 30.4136L163.788 30.2121L163.841 30.0527L163.812 29.8549L163.776 29.7843L163.817 29.5508L163.837 29.1689L163.803 28.5927L163.844 28.3592L163.889 28.1504L163.87 27.6732L163.922 27.5139L163.836 27.097L163.88 26.7115L163.886 26.4074L163.906 26.2022L163.93 26.0218L163.88 25.8523L163.857 25.5271L163.878 25.322L163.901 24.9648L163.918 24.7349L163.87 24.4134L163.854 23.9609L163.832 23.6357L163.83 23.2822L163.659 22.802L163.538 22.6682L163.332 22.4711L162.911 22.3561L162.445 22.45L162.254 22.5286L161.88 22.7352L161.665 22.9942L161.532 23.2917L161.477 23.6031L161.404 23.7907L161.302 24.1341L161.278 24.3145L161.258 24.5197L161.186 25.0609L161.193 25.1104L161.198 25.3119L161.174 25.6691L161.172 25.8211L161.124 26.182L161.1 26.5391L161.084 26.9458L161.085 27.1226L161.061 27.303L161.066 27.6813L161.021 27.8901L160.98 28.3003L160.956 28.4808L160.958 28.8343L160.983 29.0074L160.984 29.1842L161.038 29.3785L160.989 29.5625L160.916 29.927L160.97 30.1212L160.946 30.3016L160.985 30.3969L160.969 30.6268L160.998 30.8247L160.974 31.0051L161.003 31.203L160.983 31.5849L161.009 31.758L160.96 31.9421L161.06 32.1043L161.079 32.4047L161.016 32.6666L161.116 32.8288L161.218 33.5214L161.317 33.6836L161.381 33.7753L161.562 33.9761L161.704 34.0815L161.913 34.1266L162.118 34.147L162.27 34.1499ZM172.786 35.6607L172.383 35.6694L172.185 35.6985L171.793 35.7815L170.779 35.9307L170.627 35.9277L170.429 35.9569L170.054 35.9867L169.828 35.9947L169.633 35.8718L169.629 35.6703L169.642 35.4156L169.587 35.0446L169.632 34.8358L169.649 34.606L169.648 34.2524L169.653 33.9483L169.653 33.7716L169.704 33.4355L169.703 33.0819L169.677 32.732L169.704 32.5763L169.703 32.3995L169.727 32.2191L169.723 32.0176L169.768 31.8088L169.771 31.6568L169.766 31.2785L169.757 30.8755L169.82 30.6136L169.759 30.3699L169.782 30.0127L169.827 29.8039L169.847 29.5988L169.85 29.4467L169.825 29.2736L169.852 28.9411L169.854 28.6123L169.853 28.4356L169.884 28.1278L169.862 27.9794L169.872 27.8769L169.885 27.6222L169.933 27.2614L169.907 26.9115L169.938 26.7806L169.99 26.4445L169.986 26.243L170.034 25.8821L170.032 25.5286L170.003 25.3307L170.002 25.1539L170.026 24.9735L170.068 24.74L170.06 24.5138L170.041 24.2133L170.065 24.0329L170.068 23.8809L170.113 23.6721L170.105 23.4458L170.108 23.2938L170.082 23.1207L170.11 22.965L170.113 22.8129L170.108 22.4346L170.156 22.0738L170.089 21.2751L170.108 20.8931L170.135 20.5607L170.196 19.9452L170.223 19.6128L170.194 19.4149L170.193 19.2381L170.164 18.8635L170.18 18.6336L170.236 18.499L170.43 18.2684L170.772 18.1928L171.391 18.1018L171.543 18.1047L171.811 18.0399L172.331 17.9635L173.55 17.8347L174.536 17.6645L174.886 17.6383L175.628 17.5291L175.907 17.5386L176.158 17.5269L176.543 17.5713L176.851 17.6019L177.117 17.6891L177.354 17.7553L177.659 17.9379L178.031 18.2369L178.283 18.402L178.404 18.5359L178.496 18.6486L178.639 18.9309L178.838 19.2553L178.892 19.4496L178.917 19.6227L178.996 19.8133L179.089 20.1028L179.119 20.4775L179.116 20.6295L179.141 20.8027L179.138 20.9547L179.114 21.1351L179.136 21.2835L179.134 21.6123L179.135 21.7891L179.083 22.1252L179.13 22.27L179.106 22.4504L179.092 22.5282L179.093 22.705L179.065 22.8607L179.041 23.0411L178.989 23.2004L178.922 23.4376L178.789 23.7351L178.653 24.0079L178.498 24.3338L178.224 24.7026L178.115 24.8198L178.013 24.9864L177.904 25.1035L177.745 25.2279L177.474 25.4447L177.195 25.612L176.987 25.7437L177.009 25.8921L177.271 25.9547L177.565 26.063L177.802 26.1292L178.128 26.2834L178.302 26.4347L178.472 26.5613L178.657 26.7868L178.781 26.9454L178.945 27.1993L179.031 27.4394L179.127 27.5769L179.224 27.8911L179.37 28.1981L179.393 28.5233L179.478 28.7633L179.486 28.9896L179.534 29.3111L179.534 29.4879L179.54 29.8662L179.52 30.2481L179.493 30.5806L179.494 30.7573L179.47 31.1145L179.443 31.2702L179.419 31.4506L179.391 31.6063L179.367 31.7867L179.088 32.6364L178.909 32.966L178.801 33.2599L178.695 33.4017L178.544 33.5756L178.463 33.7138L178.283 33.8666L178.146 33.9626L178.04 34.1045L177.882 34.2289L177.773 34.346L177.66 34.4384L177.498 34.5381L177.314 34.6661L177.053 34.7803L176.866 34.8836L176.721 34.9302L176.502 34.9877L176.192 35.1092L176.04 35.1063L175.68 35.235L175.305 35.2649L175.128 35.2656L174.959 35.3158L174.295 35.4388L173.969 35.4613L173.768 35.4657L173.422 35.5166L173.227 35.5705L173.153 35.5814L172.786 35.6607ZM173.998 24.4904L174.341 24.4147L174.63 24.3216L174.81 24.1688L175.057 23.9556L175.317 23.6646L175.408 23.4238L175.57 23.1474L175.642 22.7829L175.673 22.4752L175.7 22.3195L175.696 22.118L175.759 21.8561L175.694 21.5877L175.644 21.4182L175.575 21.125L175.383 20.8501L175.291 20.7373L175.067 20.5933L174.915 20.5904L174.686 20.5736L174.233 20.5897L173.615 20.6806L173.424 20.7592L173.45 20.9323L173.408 21.1658L173.416 21.3921L173.417 21.5689L173.386 21.8766L173.412 22.0497L173.385 22.3822L173.386 22.5589L173.358 22.7146L173.363 23.952L173.343 24.1572L173.354 24.4082L173.376 24.5566L173.698 24.5093L173.998 24.4904ZM173.529 32.2918L173.74 32.1848L174.369 32.1681L174.839 32.0989L175.002 31.9993L175.175 31.9738L175.337 31.8741L175.534 31.6683L175.685 31.4944L175.801 31.25L175.797 31.0484L175.88 30.7582L175.904 30.5778L175.9 30.3763L175.976 30.0365L175.96 29.584L175.874 29.1672L175.851 28.842L175.541 28.2812L175.233 28.0738L174.737 27.9698L174.483 27.9567L174.278 27.9364L173.931 27.9873L173.656 28.0026L173.309 28.0535L173.268 28.287L173.284 28.7395L173.264 28.9447L173.229 29.0509L173.234 29.4292L173.21 29.6096L173.235 29.7827L173.208 29.9384L173.212 30.1399L173.213 30.4935L173.189 30.6739L173.17 31.0558L173.195 31.2289L173.197 31.5825L173.176 31.7876L173.181 31.9891L173.129 32.3252L173.529 32.2918ZM183.084 34.1712L182.709 34.201L182.533 34.2018L180.723 34.4426L180.493 34.4259L180.415 34.2353L180.439 34.0549L180.442 33.9028L180.547 33.5842L180.697 33.2336L180.835 32.4552L180.94 32.1365L181.02 31.8215L181.205 31.1879L181.257 30.8518L181.389 30.3775L181.417 30.2218L181.515 30.0305L181.595 29.7155L181.622 29.5598L181.622 29.383L181.674 29.2237L181.75 28.884L181.799 28.6999L181.921 28.3282L181.945 28.1478L181.962 27.9179L182.057 27.7018L182.161 27.3832L182.185 27.2028L182.283 26.8347L182.286 26.6827L182.334 26.4986L182.387 26.3393L182.46 25.9748L182.512 25.8155L182.608 25.0938L182.653 24.8851L182.779 24.5381L182.841 24.0994L182.949 23.8055L183.001 23.6462L183.028 23.3137L183.127 23.1224L183.153 22.7899L183.185 22.659L183.286 22.3156L183.309 21.9584L183.407 21.7671L183.484 21.6041L183.606 21.0556L183.682 20.7159L183.735 20.5566L183.85 20.3121L183.888 20.0539L183.937 19.8698L184.094 19.3919L184.118 19.2115L184.17 19.0522L184.198 18.8965L184.222 18.7161L184.33 18.4222L184.408 18.2592L184.439 18.1283L184.522 17.6612L184.648 17.3142L184.805 16.8363L184.853 16.6522L184.906 16.4929L184.965 16.2063L185.134 16.1561L185.382 16.1197L185.855 16.0753L186.099 16.0142L186.495 15.956L186.961 15.8621L187.183 15.8294L187.364 15.8534L187.583 15.7959L187.979 15.7377L188.11 15.769L188.301 15.8672L188.531 16.9198L188.612 17.464L188.683 17.6051L188.748 18.0503L188.904 18.9371L188.955 19.2833L189.027 19.6012L189.149 20.0886L189.2 20.4349L189.279 20.8023L189.28 20.9791L189.36 21.5232L189.461 21.8622L189.533 22.3569L189.609 22.6995L189.606 22.8516L189.678 23.1695L189.7 23.3179L189.783 23.71L189.872 23.9748L190.014 24.9394L190.083 25.2326L190.137 25.4268L190.246 26.1688L190.438 27.3029L190.463 27.4761L190.543 27.8434L190.572 28.2181L190.648 28.5607L190.649 28.7375L190.837 29.6701L190.858 29.8185L190.93 30.1364L190.981 30.3059L191.035 30.6769L191.061 31.0268L191.115 31.2211L191.148 31.4437L191.253 31.9842L191.329 32.5036C191.408 32.6942 191.402 32.8297 191.313 32.9102L191.041 32.9503L190.872 33.0005L190.67 33.0048L190.324 33.0558L189.783 33.1605L189.585 33.1896L189.285 33.2086L189.115 33.2588L188.872 33.3199L188.547 33.3424L188.176 33.397L188.066 33.3374L187.98 33.0973L187.89 32.6557L187.829 32.412L187.817 32.1611L187.646 30.9986L187.592 30.8043L187.044 30.8596L186.641 30.8684L185.549 31.0037L184.881 31.102L184.798 31.3922L184.672 31.7392L184.648 31.9196L184.599 32.1037L184.544 32.415L184.366 32.9214L184.272 33.3142L184.238 33.5972L184.182 33.7318L184.108 33.9195L183.974 34.0402L183.278 34.1174L183.084 34.1712ZM186.288 27.6101L187.03 27.5009L187.161 27.3554L187.134 27.0055L187.08 26.8113L187.076 26.6098L186.982 25.9667L186.981 25.7899L186.919 25.3694L186.939 25.1643L186.827 24.5743L186.714 23.6308L186.608 22.7367L186.499 22.1715L186.312 22.2748L186.261 22.6109L186.195 23.0248L186.157 23.2831L186.092 23.697L186.022 23.9094L185.959 24.1713L185.96 24.3481L185.887 24.5358L185.845 24.7693L185.796 24.9533L185.755 25.1869L185.687 25.7528L185.687 25.9296L185.618 26.3188L185.545 26.5065L185.483 26.9452L185.459 27.1256L185.442 27.3555L185.394 27.5395L185.588 27.6625L185.786 27.6333L186.062 27.6181L186.288 27.6101ZM202.219 31.3566L202.042 31.3574L201.325 31.4629L200.971 31.4643L200.773 31.4934L200.604 31.5436L200.328 31.5589L200.151 31.5597L199.957 31.6135L199.752 31.5931L199.511 31.5022L199.479 31.2796L199.452 30.7529L199.492 30.3426L199.516 29.9854L199.515 29.8087L199.511 29.6071L199.53 29.2252L199.529 29.0485L199.55 28.8433L199.549 28.6665L199.601 28.3304L199.554 28.1857L199.563 27.7295L199.597 27.4466L199.614 27.2167L199.655 26.9832L199.672 26.7533L199.678 26.4492L199.652 26.2761L199.676 26.0956L199.679 25.9436L199.703 25.7632L199.653 25.5937L199.746 25.0241L199.741 24.6458L199.719 24.4974L199.742 24.1402L199.745 23.9882L199.744 23.6346L199.693 23.2883L199.741 22.9275L199.715 22.7544L199.714 22.4008L199.784 22.1884L199.737 21.8669L199.742 21.5628L199.769 21.2303L199.842 20.8659L199.84 20.3355L199.789 19.9893L199.838 19.8052L199.836 19.4517L199.839 19.2996L199.789 19.1301L199.844 18.8188L199.847 18.6667L199.874 18.3343L199.873 18.1575L199.925 17.8214L199.875 17.6519L199.87 17.4504L199.856 17.3515L199.089 17.4642L198.863 17.4722L198.046 17.5923L197.63 17.6789L197.649 17.9793L197.625 18.1597L197.626 18.5133L197.623 18.6653L197.652 18.8632L197.622 19.3477L197.624 19.7012L197.552 20.2425L197.581 20.4404L197.575 20.7444L197.531 21.13L197.531 21.9891L197.473 22.6293L197.454 23.188L197.422 23.8246L197.377 24.2101L197.403 24.3833L197.4 24.5353L197.376 24.7157L197.374 25.0445L197.346 25.2002L197.269 26.2223L197.197 26.7635L197.153 27.1491L197.129 27.3295L197.109 27.7114L197.057 27.8708L197.008 28.0548L196.949 28.3414L196.908 28.575L196.855 28.7343L196.719 29.1838L196.607 29.453L196.53 29.616L196.267 30.059L196.017 30.4242L195.919 30.6155L195.792 30.7858L195.44 31.1408L195.113 31.4922L194.796 31.741L194.613 31.869L194.426 31.9723L194.023 32.1578L193.169 32.5361L192.629 32.6409L192.461 32.3623L192.349 31.7723L192.309 31.3235L192.211 30.8324L192.113 30.1646L192.061 29.6416L192.042 29.3411C192.268 29.2742 192.494 29.1483 192.72 28.9636L193.156 28.495L193.458 27.9705L193.668 27.51L193.766 27.1419L193.796 26.8342L193.869 26.4697L193.917 26.1089L193.979 25.6703L194.033 25.0053L194.032 24.8286L194.049 24.5987L194.075 24.2662L194.035 23.9942L194.072 23.3824L194.092 23.1772L194.066 22.8273L194.118 22.668L194.059 21.9187L194.128 21.7063L194.152 21.5259L194.106 21.3811L194.104 21.0275L194.149 20.642L194.096 19.9422L194.145 19.7581L194.118 19.2314L194.195 19.0685L194.24 18.8597L194.24 18.6829L194.193 18.5381L194.192 18.3614L194.269 18.0216L194.267 17.6681L194.32 17.5088L194.294 17.3356L194.343 17.1516L194.272 17.0104L194.296 16.83L194.298 16.5012L194.325 16.3455L194.328 16.1935L194.256 15.8756L194.284 15.7199L194.209 15.5541L194.264 15.2427L194.317 15.0834L194.32 14.9313L194.566 14.7182L194.955 14.6105L195.099 14.5639L195.52 14.5021L195.774 14.5152L195.948 14.4897L196.149 14.4853L197.072 14.4002L198.372 14.1332L199.446 14.0509L199.813 13.9716L199.983 13.9214L200.485 13.8981L200.729 13.837L200.955 13.829L201.301 13.7781L201.471 13.7279L202.781 13.5351L202.951 13.4849L203.234 13.519L203.369 13.7518L203.366 13.9039L203.414 14.2254L203.375 14.3069L203.39 14.5826L203.437 14.7274L203.377 14.8372L203.41 15.0598L203.354 15.1944L203.355 15.5479L203.289 15.7851L203.318 15.983L203.315 16.135L203.341 16.3082L203.338 16.4602L203.309 17.1215L203.3 17.4008L203.272 17.5565L203.266 17.8606L203.267 18.0373L203.286 18.3378L203.286 18.5146L203.284 18.8434L203.254 19.1511L203.227 19.4836L203.22 19.6109L203.197 19.9681L203.156 20.2016L203.188 20.4242L203.189 20.601L203.193 20.8025L203.219 20.9756L203.217 21.3044L203.179 21.5627L203.164 22.3229L203.14 22.5033L203.068 22.8678L203.097 23.0656L203.068 23.7269L203.062 24.031L203.014 24.3918L203.043 24.5897L202.995 24.9505L203.024 25.1484L203.026 25.5019L203.019 25.6292L203.07 25.9755L202.983 26.241L203.047 26.5095L203.028 26.8914L203.032 27.0929L202.98 27.429L203.01 27.6269L202.986 27.9841L202.988 28.3376L202.986 28.6664L203.011 28.8396L202.977 29.1225L202.965 29.7307L202.938 30.0632L202.94 30.4167L202.913 30.7492L202.917 30.9507L202.876 31.1842L202.615 31.2984L202.219 31.3566ZM210.781 24.4623L209.385 24.5918L208.89 24.6646L208.441 24.7053L208.268 24.7308L207.893 24.7607L207.741 24.581L207.672 24.2878L207.692 24.0827L207.716 23.7255L207.732 23.4956L207.799 23.2584L207.945 22.7063L207.944 22.5295L208.207 21.9097L208.41 21.5765L208.456 21.3677L208.557 21.2011L208.736 20.8716L208.869 20.574L209.028 20.4496L209.098 20.2372L209.203 20.0953L209.256 19.936L209.336 19.7978L209.491 19.4719L209.616 19.1249L209.673 18.9903L209.724 18.6542L209.826 18.4876L209.91 18.1974L209.93 17.9922L210.027 17.6241L210.026 17.2706L210.054 17.1149L210.03 16.6129L209.947 16.2208L209.858 15.956L209.744 15.6949L209.513 15.5014L209.198 15.4214L208.735 15.5399L208.506 15.7L208.249 16.0157L208.156 16.4086L208.135 16.6137L208.172 17.0378L208.148 17.2182L208.183 17.7944L208.184 18.1479L208.004 18.3007L207.863 18.372L207.439 18.4091L207.026 18.5204L205.591 18.7315L205.227 18.6587L205.084 18.3765L205.085 17.6941L205.084 17.3405L205.079 17.139L205.106 16.8066L205.073 16.584L205.15 16.2442L205.195 16.0355L205.194 15.8587L205.243 15.6746L205.347 15.1792L205.35 15.0272L205.476 14.6802L205.553 14.5172L205.711 14.216L205.788 14.0531L205.999 13.7694L206.136 13.6733L206.312 13.4958L206.442 13.3503L206.795 13.1721L206.922 13.0019L207.25 12.8273L207.642 12.7443L207.829 12.641L208.009 12.665L208.316 12.5188L208.712 12.4606L209.03 12.3885L209.175 12.342L209.804 12.3252L210.299 12.4292L210.635 12.4809L210.841 12.5012L211.188 12.6271L211.393 12.6474L211.577 12.6962L211.772 12.8191L211.949 12.9952L212.403 13.3327L212.503 13.4949L212.574 13.636L212.891 14.0696L212.952 14.3133L213.194 14.7578L213.312 15.0437L213.374 15.6409L213.352 16.1749L213.382 16.5495L213.354 16.7052L213.355 16.882L213.282 17.2464L213.258 17.4269L213.241 17.6567L213.193 17.8408L213.12 18.2053L213.142 18.3537L212.988 18.6796L212.876 18.9487L212.792 19.239L212.669 19.434L212.561 19.7279L212.512 19.9119L212.329 20.2167L212.225 20.5354L212.035 20.7907L211.912 21.1625L211.811 21.3291L211.555 21.9983L211.503 22.1577L211.373 22.4799L211.346 22.6356L211.256 23.0532L211.225 23.3609L211.155 23.5733L211.128 23.729L211.082 23.9378L211.101 24.2382L211.003 24.4296L210.781 24.4623ZM210.475 30.1169L210.373 30.1068L209.556 30.2268L208.984 30.2858L208.535 30.3265L208.284 30.3382L207.955 30.336L207.8 30.3083L207.728 30.1672L207.634 29.5241L207.668 29.2411L207.614 29.0469L207.642 28.8912L207.637 28.5129L207.607 27.4559L207.623 27.0493L207.655 26.9183L207.806 26.7445L208.099 26.6761L208.548 26.6353L209.195 26.5655L209.393 26.5364L209.636 26.4752L209.788 26.4781L210.184 26.4199L210.559 26.3901L210.732 26.3646L210.973 26.4556L211.2 26.6243L211.275 26.967L211.256 27.3489L211.25 27.653L211.251 28.0065L211.218 28.4663L211.258 28.7384L211.252 29.0424L211.275 29.3676L211.23 29.5764L211.047 29.8812L210.698 30.0842L210.475 30.1169Z" fill="white"/>
<defs>
<linearGradient id="paint0_linear_73_1140" x1="120.569" y1="29.6174" x2="116.043" y2="74.2239" gradientUnits="userSpaceOnUse">
<stop offset="0.0208333" stop-color="white"/>
<stop offset="1" stop-color="white" stop-opacity="0"/>
</linearGradient>
<linearGradient id="paint1_linear_73_1140" x1="19.1637" y1="32.9529" x2="61.8132" y2="118.065" gradientUnits="userSpaceOnUse">
<stop stop-color="#618967"/>
<stop offset="1" stop-color="#72A479"/>
</linearGradient>
</defs>
</svg>
